<svg width="192" height="40" viewBox="0 0 192 40" fill="none" xmlns="http://www.w3.org/2000/svg"><path fill-rule="evenodd" clip-rule="evenodd" d="M22.4205 2.01261C21.638 1.22317 20.362 1.22317 19.5795 2.01261L9.28443 12.3996C9.28429 12.3997 9.28429 12.3999 9.28443 12.4001L9.28452 12.4002L9.28443 12.4006L3.42625 18.311C0.191007 21.5751 0.191007 26.8672 3.42625 30.1313C6.66149 33.3954 11.9068 33.3954 15.1421 30.1313L17.3056 27.9485C17.3027 27.9332 17.3 27.9177 17.2975 27.9023L16.9404 25.7148L12.7662 26.4452C12.3663 26.5152 12 26.2075 12 25.8015C12 24.0954 12.8324 22.4966 14.2301 21.5183L16.0475 20.2461L15.7158 18.2143C15.2706 15.4875 16.264 12.724 18.3432 10.9047L19.683 9.73238C20.437 9.07258 21.563 9.07258 22.317 9.73238L23.6568 10.9047C25.7361 12.724 26.7294 15.4875 26.2842 18.2143L25.9525 20.2461L27.7699 21.5183C29.1676 22.4966 30 24.0954 30 25.8015C30 26.2075 29.6337 26.5152 29.2338 26.4452L25.0596 25.7148L24.7025 27.9023C24.701 27.9116 24.6994 27.921 24.6977 27.9303C24.6967 27.9361 24.6956 27.9419 24.6945 27.9477L26.8579 30.1303C30.0932 33.3944 35.3385 33.3944 38.5738 30.1303C41.809 26.8662 41.809 21.5741 38.5738 18.31L22.4205 2.01261ZM21 19.0793C22.3807 19.0793 23.5 17.96 23.5 16.5793C23.5 15.1986 22.3807 14.0793 21 14.0793C19.6193 14.0793 18.5 15.1986 18.5 16.5793C18.5 17.96 19.6193 19.0793 21 19.0793ZM29 37.0795C29 37.6423 28.814 38.1616 28.5002 38.5795H13.4998C13.186 38.1616 13 37.6423 13 37.0795C13 35.6988 14.1193 34.5795 15.5 34.5795C16.0756 34.5795 16.6058 34.774 17.0283 35.1009C17.2648 33.1174 18.9528 31.5795 21 31.5795C23.0472 31.5795 24.7352 33.1174 24.9717 35.1009C25.3942 34.774 25.9244 34.5795 26.5 34.5795C27.8807 34.5795 29 35.6988 29 37.0795Z" fill="#673bb7"></path><path fill-rule="evenodd" clip-rule="evenodd" d="M108.954 4.33563C108.439 4.33563 108.008 4.17879 107.661 3.86511C107.327 3.5378 107.16 3.13547 107.16 2.65814C107.16 2.1808 107.327 1.7853 107.661 1.47162C108.008 1.14431 108.439 0.980652 108.954 0.980652C109.469 0.980652 109.893 1.14431 110.227 1.47162C110.575 1.7853 110.748 2.1808 110.748 2.65814C110.748 3.13547 110.575 3.5378 110.227 3.86511C109.893 4.17879 109.469 4.33563 108.954 4.33563ZM110.394 5.6858V17.0191H107.473V5.6858H110.394ZM80.9844 8.2634C80.5254 9.14988 80.2959 10.1659 80.2959 11.3115C80.2959 12.4708 80.5254 13.5004 80.9844 14.4005C81.4573 15.287 82.0902 15.9757 82.883 16.4667C83.6898 16.9577 84.58 17.2032 85.5536 17.2032C86.416 17.2032 87.174 17.0327 87.8278 16.6917C88.4954 16.3372 89.017 15.8939 89.3926 15.362V17.0191H92.3344V5.6858H89.3926V7.30191C89.0031 6.78367 88.4815 6.35406 87.8278 6.01311C87.1879 5.67216 86.4368 5.50168 85.5745 5.50168C84.5869 5.50168 83.6898 5.74035 82.883 6.21768C82.0902 6.69502 81.4573 7.37692 80.9844 8.2634ZM88.9753 9.57266C89.2535 10.0636 89.3926 10.6569 89.3926 11.3524C89.3926 12.048 89.2535 12.6481 88.9753 13.1527C88.6971 13.6436 88.3215 14.0255 87.8486 14.2983C87.3757 14.5574 86.868 14.6869 86.3256 14.6869C85.797 14.6869 85.2963 14.5506 84.8234 14.2778C84.3644 14.005 83.9888 13.6164 83.6967 13.1117C83.4185 12.5935 83.2794 11.9934 83.2794 11.3115C83.2794 10.6296 83.4185 10.0432 83.6967 9.5522C83.9888 9.04759 84.3644 8.66572 84.8234 8.4066C85.2824 8.14748 85.7831 8.01791 86.3256 8.01791C86.868 8.01791 87.3757 8.15429 87.8486 8.42706C88.3215 8.68618 88.6971 9.06805 88.9753 9.57266ZM101.062 6.01311C100.408 5.67216 99.6497 5.50168 98.7874 5.50168C97.7998 5.50168 96.9027 5.74035 96.0959 6.21768C95.3031 6.69502 94.6702 7.37692 94.1973 8.2634C93.7383 9.14988 93.5088 10.1659 93.5088 11.3115C93.5088 12.4708 93.7383 13.5004 94.1973 14.4005C94.6702 15.287 95.31 15.9757 96.1168 16.4667C96.9235 16.9577 97.8137 17.2032 98.7874 17.2032C99.6358 17.2032 100.387 17.0259 101.041 16.6713C101.708 16.3167 102.23 15.8735 102.605 15.3416V17.1009C102.605 18.1101 102.341 18.8602 101.813 19.3512C101.284 19.8558 100.596 20.1081 99.7471 20.1081C99.0238 20.1081 98.4049 19.9513 97.8902 19.6376C97.3895 19.3375 97.0626 18.9284 96.9096 18.4102H94.0095C94.1486 19.7058 94.7398 20.7286 95.783 21.4787C96.8401 22.2288 98.1893 22.6039 99.8306 22.6039C101.055 22.6039 102.098 22.3584 102.96 21.8674C103.823 21.3901 104.469 20.7354 104.9 19.9035C105.332 19.0852 105.547 18.151 105.547 17.1009V5.6858H102.605V7.30191C102.23 6.77003 101.715 6.34043 101.062 6.01311ZM102.188 9.57266C102.466 10.0636 102.605 10.6569 102.605 11.3524C102.605 12.048 102.466 12.6481 102.188 13.1527C101.91 13.6436 101.534 14.0255 101.062 14.2983C100.589 14.5574 100.081 14.6869 99.5385 14.6869C99.0099 14.6869 98.5092 14.5506 98.0363 14.2778C97.5773 14.005 97.2017 13.6164 96.9096 13.1117C96.6314 12.5935 96.4923 11.9934 96.4923 11.3115C96.4923 10.6296 96.6314 10.0432 96.9096 9.5522C97.2017 9.04759 97.5773 8.66572 98.0363 8.4066C98.4953 8.14748 98.996 8.01791 99.5385 8.01791C100.081 8.01791 100.589 8.15429 101.062 8.42706C101.534 8.68618 101.91 9.06805 102.188 9.57266ZM115.273 17.0191V1.88077H112.352V17.0191H115.273ZM127.977 11.1069C127.977 11.5161 127.949 11.8843 127.893 12.2116H119.443C119.513 13.0299 119.805 13.6709 120.32 14.1346C120.834 14.5983 121.467 14.8301 122.218 14.8301C123.303 14.8301 124.075 14.3733 124.534 13.4595H127.685C127.351 14.5506 126.711 15.4507 125.765 16.1599C124.819 16.8554 123.658 17.2032 122.281 17.2032C121.168 17.2032 120.167 16.9645 119.277 16.4872C118.4 15.9962 117.712 15.3075 117.211 14.421C116.724 13.5345 116.481 12.5117 116.481 11.3524C116.481 10.1796 116.724 9.14988 117.211 8.2634C117.698 7.37692 118.379 6.69502 119.256 6.21768C120.132 5.74035 121.14 5.50168 122.281 5.50168C123.38 5.50168 124.36 5.73353 125.223 6.19723C126.099 6.66092 126.774 7.32237 127.247 8.18157C127.733 9.02713 127.977 10.0023 127.977 11.1069ZM124.952 10.2887C124.938 9.5522 124.666 8.96576 124.138 8.52934C123.609 8.07929 122.963 7.85426 122.198 7.85426C121.474 7.85426 120.862 8.07247 120.362 8.50889C119.875 8.93167 119.576 9.52492 119.464 10.2887H124.952ZM144.145 16.4867C145.035 16.964 146.037 17.2027 147.15 17.2027C148.276 17.2027 149.292 16.964 150.196 16.4867C151.114 15.9957 151.837 15.307 152.366 14.4205C152.908 13.534 153.179 12.5111 153.179 11.3519C153.179 10.1927 152.915 9.16981 152.386 8.28333C151.872 7.39686 151.162 6.71495 150.258 6.23762C149.354 5.74665 148.346 5.50116 147.233 5.50116C146.12 5.50116 145.112 5.74665 144.208 6.23762C143.304 6.71495 142.587 7.39686 142.059 8.28333C141.544 9.16981 141.287 10.1927 141.287 11.3519C141.287 12.5111 141.537 13.534 142.038 14.4205C142.553 15.307 143.255 15.9957 144.145 16.4867ZM148.631 14.3387C148.172 14.5841 147.678 14.7069 147.15 14.7069C146.315 14.7069 145.62 14.4205 145.063 13.8477C144.521 13.2612 144.249 12.4293 144.249 11.3519C144.249 10.2745 144.528 9.44939 145.084 8.87659C145.654 8.29015 146.357 7.99693 147.191 7.99693C148.026 7.99693 148.728 8.29015 149.299 8.87659C149.883 9.44939 150.175 10.2745 150.175 11.3519C150.175 12.0747 150.036 12.6884 149.758 13.1931C149.479 13.6977 149.104 14.0795 148.631 14.3387ZM134.213 22.3783L141.37 5.68527H138.261L135.236 13.6022L132.252 5.68527H128.977L133.608 16.7321L131.105 22.3783H134.213ZM165.306 17.0185H162.365V15.5865C161.989 16.0775 161.495 16.4662 160.883 16.7526C160.285 17.0254 159.631 17.1617 158.922 17.1617C158.018 17.1617 157.218 16.9776 156.523 16.6094C155.827 16.2275 155.278 15.6752 154.874 14.9524C154.485 14.2159 154.29 13.3431 154.29 12.3339V5.68527H157.211V11.9247C157.211 12.8248 157.441 13.5204 157.9 14.0113C158.359 14.4887 158.985 14.7273 159.777 14.7273C160.584 14.7273 161.217 14.4887 161.676 14.0113C162.135 13.5204 162.365 12.8248 162.365 11.9247V5.68527H165.306V17.0185ZM77.8635 12.2111C77.9191 11.8838 77.9469 11.5156 77.9469 11.1064C77.9469 10.0017 77.7035 9.02661 77.2167 8.18105C76.7438 7.32185 76.0692 6.6604 75.1929 6.1967C74.3305 5.73301 73.3499 5.50116 72.2511 5.50116C71.1105 5.50116 70.1021 5.73983 69.2258 6.21716C68.3495 6.69449 67.668 7.3764 67.1812 8.26288C66.6943 9.14935 66.4509 10.179 66.4509 11.3519C66.4509 12.5111 66.6943 13.534 67.1812 14.4205C67.6819 15.307 68.3704 15.9957 69.2467 16.4867C70.1369 16.964 71.1383 17.2027 72.2511 17.2027C73.6281 17.2027 74.7895 16.8549 75.7354 16.1593C76.6812 15.4502 77.321 14.55 77.6548 13.459H74.5044C74.0454 14.3727 73.2734 14.8296 72.1885 14.8296C71.4374 14.8296 70.8045 14.5978 70.2899 14.1341C69.7752 13.6704 69.4831 13.0294 69.4136 12.2111H77.8635ZM74.108 8.52882C74.6365 8.96524 74.9078 9.55168 74.9217 10.2881H69.4345C69.5457 9.5244 69.8448 8.93114 70.3316 8.50836C70.8323 8.07194 71.4443 7.85373 72.1676 7.85373C72.9326 7.85373 73.5794 8.07876 74.108 8.52882ZM62.9371 17.0185L66.317 5.68528H63.5213L61.4766 14.2977L59.3068 5.68528H56.2189L54.0073 14.3182L51.9627 5.68528H49L52.4008 17.0185H55.5721L57.6794 9.10162L59.7866 17.0185H62.9371Z" fill="#673bb7"></path><path fill-rule="evenodd" clip-rule="evenodd" d="M87.8215 26.8405C87.4784 26.8405 87.1909 26.736 86.9591 26.5269C86.7366 26.3086 86.6253 26.0404 86.6253 25.7222C86.6253 25.404 86.7366 25.1403 86.9591 24.9312C87.1909 24.713 87.4784 24.6039 87.8215 24.6039C88.1646 24.6039 88.4474 24.713 88.67 24.9312C88.9018 25.1403 89.0177 25.404 89.0177 25.7222C89.0177 26.0404 88.9018 26.3086 88.67 26.5269C88.4474 26.736 88.1646 26.8405 87.8215 26.8405ZM88.7812 27.7406V35.2962H86.8339V27.7406H88.7812ZM58.946 25.204V35.2962H56.9987V25.204H58.946ZM56.0798 28.7226C56.0798 29.2317 55.9546 29.7091 55.7043 30.1546C55.4632 30.6001 55.0784 30.9592 54.5498 31.232C54.0305 31.5048 53.3721 31.6411 52.5747 31.6411H50.9473V35.2962H49V25.7768H52.5747C53.3258 25.7768 53.9656 25.904 54.4942 26.1586C55.0227 26.4132 55.4168 26.7632 55.6764 27.2088C55.9454 27.6543 56.0798 28.1589 56.0798 28.7226ZM52.4912 30.1C53.0291 30.1 53.4278 29.9818 53.6874 29.7454C53.9471 29.5 54.0769 29.159 54.0769 28.7226C54.0769 27.7952 53.5483 27.3315 52.4912 27.3315H50.9473V30.1H52.4912ZM60.3646 29.459C60.0586 30.05 59.9056 30.7274 59.9056 31.4911C59.9056 32.264 60.0586 32.9504 60.3646 33.5505C60.6799 34.1415 61.1018 34.6006 61.6303 34.9279C62.1682 35.2552 62.7616 35.4189 63.4107 35.4189C63.9856 35.4189 64.491 35.3052 64.9268 35.0779C65.3719 34.8416 65.7197 34.5461 65.97 34.1915V35.2962H67.9312V27.7406H65.97V28.8181C65.7104 28.4726 65.3627 28.1862 64.9268 27.9589C64.5003 27.7316 63.9996 27.6179 63.4246 27.6179C62.7663 27.6179 62.1682 27.777 61.6303 28.0952C61.1018 28.4135 60.6799 28.8681 60.3646 29.459ZM65.6918 30.3319C65.8773 30.6592 65.97 31.0547 65.97 31.5184C65.97 31.9821 65.8773 32.3821 65.6918 32.7186C65.5064 33.0459 65.256 33.3004 64.9407 33.4823C64.6255 33.655 64.287 33.7414 63.9254 33.7414C63.573 33.7414 63.2392 33.6505 62.9239 33.4687C62.6179 33.2868 62.3675 33.0277 62.1728 32.6913C61.9873 32.3458 61.8946 31.9457 61.8946 31.4911C61.8946 31.0365 61.9873 30.6456 62.1728 30.3182C62.3675 29.9818 62.6179 29.7273 62.9239 29.5545C63.2299 29.3818 63.5637 29.2954 63.9254 29.2954C64.287 29.2954 64.6255 29.3863 64.9407 29.5682C65.256 29.7409 65.5064 29.9955 65.6918 30.3319ZM73.6396 27.6315C74.5576 27.6315 75.2995 27.9179 75.8651 28.4907C76.4307 29.0545 76.7136 29.8455 76.7136 30.8638V35.2962H74.7663V31.1229C74.7663 30.5228 74.6133 30.0637 74.3073 29.7454C74.0013 29.4181 73.584 29.2545 73.0554 29.2545C72.5176 29.2545 72.0911 29.4181 71.7758 29.7454C71.4698 30.0637 71.3168 30.5228 71.3168 31.1229V35.2962H69.3695V27.7406H71.3168V28.6817C71.5764 28.3544 71.9056 28.0998 72.3043 27.9179C72.7123 27.727 73.1574 27.6315 73.6396 27.6315ZM84.5973 28.4907C84.0317 27.9179 83.2899 27.6315 82.3718 27.6315C81.8897 27.6315 81.4446 27.727 81.0366 27.9179C80.6378 28.0998 80.3086 28.3544 80.049 28.6817V27.7406H78.1017V35.2962H80.049V31.1229C80.049 30.5228 80.202 30.0637 80.508 29.7454C80.8233 29.4181 81.2498 29.2545 81.7877 29.2545C82.3162 29.2545 82.7335 29.4181 83.0395 29.7454C83.3455 30.0637 83.4985 30.5228 83.4985 31.1229V35.2962H85.4458V30.8638C85.4458 29.8455 85.163 29.0545 84.5973 28.4907ZM96.7372 28.4907C96.1715 27.9179 95.4297 27.6315 94.5117 27.6315C94.0295 27.6315 93.5844 27.727 93.1764 27.9179C92.7776 28.0998 92.4485 28.3544 92.1888 28.6817V27.7406H90.2415V35.2962H92.1888V31.1229C92.1888 30.5228 92.3418 30.0637 92.6478 29.7454C92.9631 29.4181 93.3897 29.2545 93.9275 29.2545C94.456 29.2545 94.8733 29.4181 95.1793 29.7454C95.4853 30.0637 95.6383 30.5228 95.6383 31.1229V35.2962H97.5856V30.8638C97.5856 29.8455 97.3028 29.0545 96.7372 28.4907ZM101.992 27.6179C102.567 27.6179 103.072 27.7316 103.508 27.9589C103.944 28.1771 104.287 28.4635 104.537 28.8181V27.7406H106.499V35.3507C106.499 36.0508 106.355 36.6736 106.067 37.2191C105.78 37.7737 105.349 38.2102 104.774 38.5284C104.199 38.8557 103.504 39.0194 102.688 39.0194C101.593 39.0194 100.694 38.7693 99.9891 38.2693C99.2937 37.7692 98.8996 37.0873 98.8069 36.2235H100.74C100.842 36.569 101.06 36.8418 101.394 37.0418C101.737 37.251 102.15 37.3555 102.632 37.3555C103.198 37.3555 103.657 37.1873 104.009 36.8509C104.361 36.5236 104.537 36.0235 104.537 35.3507V34.1778C104.287 34.5324 103.939 34.8279 103.494 35.0643C103.058 35.3007 102.558 35.4189 101.992 35.4189C101.343 35.4189 100.75 35.2552 100.212 34.9279C99.6739 34.6006 99.2473 34.1415 98.932 33.5505C98.626 32.9504 98.473 32.264 98.473 31.4911C98.473 30.7274 98.626 30.05 98.932 29.459C99.2473 28.8681 99.6692 28.4135 100.198 28.0952C100.736 27.777 101.334 27.6179 101.992 27.6179ZM104.537 31.5184C104.537 31.0547 104.445 30.6592 104.259 30.3319C104.074 29.9955 103.823 29.7409 103.508 29.5682C103.193 29.3863 102.854 29.2954 102.493 29.2954C102.131 29.2954 101.797 29.3818 101.491 29.5545C101.185 29.7273 100.935 29.9818 100.74 30.3182C100.555 30.6456 100.462 31.0365 100.462 31.4911C100.462 31.9457 100.555 32.3458 100.74 32.6913C100.935 33.0277 101.185 33.2868 101.491 33.4687C101.807 33.6505 102.14 33.7414 102.493 33.7414C102.854 33.7414 103.193 33.655 103.508 33.4823C103.823 33.3004 104.074 33.0459 104.259 32.7186C104.445 32.3821 104.537 31.9821 104.537 31.5184ZM130.82 35.2967L128.205 32.0781V35.2967H126.258V25.2045H128.205V30.9461L130.792 27.7412H133.323L129.93 31.5325L133.351 35.2967H130.82ZM116.557 30.1551C116.807 29.7096 116.932 29.2323 116.932 28.7231C116.932 28.1594 116.798 27.6548 116.529 27.2093C116.269 26.7638 115.875 26.4137 115.347 26.1591C114.818 25.9046 114.178 25.7773 113.427 25.7773H109.853V35.2967H111.8V31.6417H113.427C114.225 31.6417 114.883 31.5053 115.402 31.2325C115.931 30.9597 116.316 30.6006 116.557 30.1551ZM114.54 29.746C114.28 29.9824 113.882 30.1005 113.344 30.1005H111.8V27.332H113.344C114.401 27.332 114.929 27.7957 114.929 28.7231C114.929 29.1595 114.8 29.5005 114.54 29.746ZM119.27 34.9421C119.863 35.2603 120.531 35.4194 121.273 35.4194C122.024 35.4194 122.701 35.2603 123.304 34.9421C123.916 34.6148 124.398 34.1556 124.75 33.5646C125.112 32.9736 125.293 32.2917 125.293 31.5189C125.293 30.7461 125.117 30.0642 124.764 29.4732C124.421 28.8822 123.948 28.4276 123.345 28.1094C122.743 27.7821 122.07 27.6184 121.329 27.6184C120.587 27.6184 119.914 27.7821 119.312 28.1094C118.709 28.4276 118.231 28.8822 117.879 29.4732C117.536 30.0642 117.364 30.7461 117.364 31.5189C117.364 32.2917 117.531 32.9736 117.865 33.5646C118.208 34.1556 118.677 34.6148 119.27 34.9421ZM122.261 33.5101C121.955 33.6737 121.625 33.7556 121.273 33.7556C120.717 33.7556 120.253 33.5646 119.882 33.1828C119.52 32.7918 119.34 32.2372 119.34 31.5189C119.34 30.8006 119.525 30.2506 119.896 29.8687C120.276 29.4777 120.744 29.2823 121.301 29.2823C121.857 29.2823 122.325 29.4777 122.706 29.8687C123.095 30.2506 123.29 30.8006 123.29 31.5189C123.29 32.0008 123.197 32.4099 123.012 32.7463C122.826 33.0827 122.576 33.3373 122.261 33.5101ZM141.024 32.0917C141.061 31.8735 141.08 31.628 141.08 31.3553C141.08 30.6188 140.918 29.9687 140.593 29.405C140.278 28.8322 139.828 28.3912 139.244 28.0821C138.669 27.773 138.015 27.6184 137.283 27.6184C136.522 27.6184 135.85 27.7775 135.266 28.0957C134.682 28.414 134.227 28.8686 133.903 29.4596C133.578 30.0505 133.416 30.737 133.416 31.5189C133.416 32.2917 133.578 32.9736 133.903 33.5646C134.237 34.1556 134.696 34.6148 135.28 34.9421C135.873 35.2603 136.541 35.4194 137.283 35.4194C138.201 35.4194 138.975 35.1876 139.606 34.7239C140.236 34.2511 140.663 33.651 140.885 32.9236H138.785C138.479 33.5328 137.964 33.8374 137.241 33.8374C136.74 33.8374 136.318 33.6828 135.975 33.3737C135.632 33.0646 135.437 32.6372 135.391 32.0917H141.024ZM138.521 29.6369C138.873 29.9278 139.054 30.3188 139.063 30.8097H135.405C135.479 30.3006 135.678 29.9051 136.003 29.6232C136.337 29.3323 136.745 29.1868 137.227 29.1868C137.737 29.1868 138.168 29.3368 138.521 29.6369ZM143.985 28.914C144.235 28.514 144.56 28.2003 144.959 27.973C145.367 27.7457 145.83 27.6321 146.35 27.6321V29.6369H145.835C145.223 29.6369 144.759 29.7778 144.444 30.0596C144.138 30.3415 143.985 30.8325 143.985 31.5325V35.2967H142.038V27.7412H143.985V28.914ZM171.297 26.5269C171.529 26.736 171.816 26.8405 172.159 26.8405C172.502 26.8405 172.785 26.736 173.008 26.5269C173.239 26.3086 173.355 26.0404 173.355 25.7222C173.355 25.404 173.239 25.1403 173.008 24.9312C172.785 24.713 172.502 24.6039 172.159 24.6039C171.816 24.6039 171.529 24.713 171.297 24.9312C171.074 25.1403 170.963 25.404 170.963 25.7222C170.963 26.0404 171.074 26.3086 171.297 26.5269ZM173.119 35.2962V27.7406H171.172V35.2962H173.119ZM169.711 25.204V35.2962H167.764V25.204H169.711ZM150.577 34.7643C151.338 35.1825 152.172 35.3916 153.081 35.3916C153.99 35.3916 154.824 35.1825 155.585 34.7643C156.345 34.346 156.943 33.7687 157.379 33.0322C157.824 32.2867 158.047 31.4457 158.047 30.5092C158.047 29.5818 157.824 28.7499 157.379 28.0134C156.943 27.2679 156.345 26.686 155.585 26.2677C154.834 25.8495 153.999 25.6404 153.081 25.6404C152.172 25.6404 151.338 25.8495 150.577 26.2677C149.817 26.686 149.214 27.2679 148.769 28.0134C148.324 28.7499 148.102 29.5818 148.102 30.5092C148.102 31.4457 148.324 32.2867 148.769 33.0322C149.214 33.7687 149.817 34.346 150.577 34.7643ZM154.625 33.305C154.18 33.5596 153.665 33.6869 153.081 33.6869C152.497 33.6869 151.978 33.5596 151.523 33.305C151.078 33.0413 150.73 32.6685 150.48 32.1867C150.23 31.7048 150.104 31.1456 150.104 30.5092C150.104 29.8727 150.23 29.3181 150.48 28.8453C150.73 28.3635 151.078 27.9952 151.523 27.7406C151.978 27.4861 152.497 27.3588 153.081 27.3588C153.665 27.3588 154.18 27.4861 154.625 27.7406C155.07 27.9952 155.418 28.3635 155.668 28.8453C155.919 29.3181 156.044 29.8727 156.044 30.5092C156.044 31.1456 155.919 31.7048 155.668 32.1867C155.418 32.6685 155.07 33.0413 154.625 33.305ZM165.527 28.4907C164.962 27.9179 164.22 27.6315 163.302 27.6315C162.82 27.6315 162.375 27.727 161.967 27.9179C161.568 28.0998 161.239 28.3544 160.979 28.6817V27.7406H159.032V35.2962H160.979V31.1229C160.979 30.5228 161.132 30.0637 161.438 29.7454C161.753 29.4181 162.18 29.2545 162.718 29.2545C163.246 29.2545 163.664 29.4181 163.97 29.7454C164.276 30.0637 164.429 30.5228 164.429 31.1229V35.2962H166.376V30.8638C166.376 29.8455 166.093 29.0545 165.527 28.4907ZM178.849 27.6315C179.767 27.6315 180.509 27.9179 181.075 28.4907C181.64 29.0545 181.923 29.8455 181.923 30.8638V35.2962H179.976V31.1229C179.976 30.5228 179.823 30.0637 179.517 29.7454C179.211 29.4181 178.794 29.2545 178.265 29.2545C177.727 29.2545 177.301 29.4181 176.985 29.7454C176.679 30.0637 176.526 30.5228 176.526 31.1229V35.2962H174.579V27.7406H176.526V28.6817C176.786 28.3544 177.115 28.0998 177.514 27.9179C177.922 27.727 178.367 27.6315 178.849 27.6315ZM190.419 32.0912C190.456 31.873 190.475 31.6275 190.475 31.3547C190.475 30.6183 190.312 29.9682 189.988 29.4045C189.673 28.8317 189.223 28.3907 188.639 28.0816C188.064 27.7725 187.41 27.6179 186.677 27.6179C185.917 27.6179 185.245 27.777 184.661 28.0952C184.076 28.4135 183.622 28.8681 183.298 29.459C182.973 30.05 182.811 30.7365 182.811 31.5184C182.811 32.2912 182.973 32.9731 183.298 33.5641C183.631 34.1551 184.09 34.6143 184.675 34.9416C185.268 35.2598 185.936 35.4189 186.677 35.4189C187.595 35.4189 188.37 35.1871 189 34.7234C189.631 34.2506 190.057 33.6505 190.28 32.9231H188.18C187.874 33.5323 187.359 33.8369 186.636 33.8369C186.135 33.8369 185.713 33.6823 185.37 33.3732C185.027 33.0641 184.832 32.6367 184.786 32.0912H190.419ZM187.915 29.6363C188.268 29.9273 188.449 30.3182 188.458 30.8092H184.8C184.874 30.3001 185.073 29.9046 185.398 29.6227C185.732 29.3318 186.14 29.1863 186.622 29.1863C187.132 29.1863 187.563 29.3363 187.915 29.6363Z" fill="#48545D"></path></svg>